<svg version="1.2" xmlns="http://www.w3.org/2000/svg" viewBox="0 0 512 512" width="512" height="512">
	<style>
		.s0 { fill: #111111 } 
	</style>
	<path class="s0" d="m456.82 401.52c-3.51 2.81-7.73 5.61-11.94 8.42l-86.36 49.15-179.74-102.51c-9.83-5.61-9.83-20.36 0-25.98l43.53-24.57c21.06-11.94 47.04-11.94 68.1 0z"/>
	<path class="s0" d="m312.88 485.07l-16.85 9.83c-5.62 2.81-11.23 5.62-16.85 7.02-7.72 2.11-15.45 3.51-22.47 3.51-7.02 0-15.44-1.4-22.46-3.51-5.62-2.11-11.94-4.21-17.56-7.02l-148.85-84.96q-6.32-4.21-12.63-8.42c-5.62-4.92-11.24-11.24-15.45-17.56-4.21-6.31-7.02-13.34-9.13-20.36-2.11-7.02-2.81-14.04-2.81-21.76v-94.79l183.26-104.61c9.82-5.62 22.46 1.4 22.46 12.63v53.37c0 24.57-13.34 46.34-34.4 58.97l-56.17 32.3c-34.4 19.66-34.4 69.51 0 89.17l169.91 97.59z"/>
	<path class="s0" d="m484.9 341.14c0 7.72-1.4 15.44-3.51 22.46l-168.51-96.19c-21.06-11.93-34.4-34.4-34.4-58.97v-68.81c0-39.32-42.83-63.89-77.94-44.24l-172.72 99v-23.17c0-28.08 15.45-54.76 40.02-68.8l148.15-84.96c5.62-2.81 11.23-5.62 17.55-7.02 7.73-2.11 14.75-3.51 22.47-3.51 7.72 0 15.45 1.4 22.47 3.51 5.62 2.1 11.93 4.21 16.85 7.02l148.85 84.96c6.32 3.51 12.64 8.42 17.55 13.34 5.62 5.61 9.83 11.93 13.34 18.25 3.51 7.02 6.32 14.04 7.72 21.77 0.71 4.91 1.41 9.83 1.41 14.74v169.91z"/>
</svg>