<?xml version="1.0" encoding="UTF-8"?>
<svg id="Layer_2" data-name="Layer 2" xmlns="http://www.w3.org/2000/svg" viewBox="0 0 527.63 735">
  <defs>
    <style>
      .cls-1 {
        fill: #110f21;
        stroke-width: 0px;
      }
    </style>
  </defs>
  <g id="Artwork">
    <g>
      <path class="cls-1" d="M458.73,127.81c16.08-40.13,15.23-59.08,12.5-65.75-47.59-36.55-114.8-49.45-160.78-53.62l-24.1,89.03c37.21,3.33,125.13,12.17,165.47,46.54,2.37-5.24,4.71-10.68,6.92-16.19Z"/>
      <path class="cls-1" d="M518.76,124.18c-2.14-5.61-4.62-10.94-7.38-16.03-2.89,11.15-6.97,23.27-12.25,36.4-11.21,27.87-24.97,53.16-31.82,65.16-31.45,70.54-195.11,104-336.55,121.12L215.98,0l-119.82,42.62-61,236.81-.08-.12L0,415.73l.03.05v.02s23.81,35.24,23.81,35.24l191.7,283.95h127.17l-204.17-302.43c38.07-6.33,84.46-14.62,132.68-24.51,150-30.79,217.08-73.2,244.44-155.68,11.05-33.3,18.8-87.04,3.1-128.19Z"/>
    </g>
  </g>
</svg>