<?xml version="1.0" encoding="UTF-8"?>
<svg id="Layer_2" data-name="Layer 2" xmlns="http://www.w3.org/2000/svg" viewBox="0 0 1920 702.68">
  <defs>
    <style>
      .cls-1 {
        fill: #110f21;
        stroke-width: 0px;
      }
    </style>
  </defs>
  <g id="Artwork">
    <g>
      <path class="cls-1" d="M887.39,524.23c-31.94,0-59.49-8.1-82.67-24.31-23.19-16.21-39.73-38.69-49.64-67.43-9.92-28.74-11.58-61.77-5-99.12,6.58-37.33,19.78-70.37,39.59-99.11,19.8-28.74,43.92-51.33,72.38-67.79,28.44-16.46,59.37-24.69,92.78-24.69,28.98,0,52.19,4.92,69.62,14.74,17.43,9.84,29.99,23.58,37.68,41.27,7.68,17.68,11.82,38.08,12.43,61.16.59,23.1-1.45,47.9-6.12,74.43-3.47,19.66-9.61,40.53-18.42,62.64-8.81,22.11-20.36,43-34.63,62.64-14.28,19.66-32.05,35.5-53.33,47.53-21.28,12.03-46.18,18.05-74.66,18.05ZM918.07,463.07c26.03,0,49.03-5.77,69.01-17.32,19.96-11.53,36.11-27.14,48.41-46.79,12.31-19.64,20.58-41.51,24.83-65.59,4.59-26.03,4.07-48.88-1.55-68.53-5.63-19.65-16.45-34.88-32.47-45.69-16.04-10.8-36.82-16.21-62.36-16.21-38.32,0-70.09,12.28-95.29,36.85-25.22,24.57-41.15,55.76-47.82,93.59-4.51,25.55-3.31,48.03,3.58,67.43,6.9,19.41,18.33,34.64,34.32,45.69,15.98,11.05,35.76,16.58,59.34,16.58ZM1119.05.33h70.86s-91.19,516.54-91.19,516.54h-64.85c.43-10.8,1.41-24.06,2.97-39.79,1.54-15.72,3.31-29.22,5.3-40.53L1119.05.33Z"/>
      <path class="cls-1" d="M1237.59,149.13h70.88l-65.11,367.71h-70.74l64.97-367.71ZM1343.45.16l-13.38,75.91h-87.69L1255.76.16h87.69Z"/>
      <path class="cls-1" d="M586.77,445.38c-20.35,12.28-44.03,18.42-71.04,18.42-24.08,0-44.45-4.91-61.14-14.74-16.69-9.82-29.05-23.33-37.07-40.53-8.02-17.19-11.32-36.85-9.87-58.96.46-19.88,14.03-54.53,14.03-54.53,11.81-28,29.77-50.48,53.89-67.43,24.11-16.95,52.13-25.42,84.07-25.42,28.49,0,51.16,7.99,68,23.95,10.07,9.56,16.51,21.65,19.37,36.23,18.33.25,50.13-3.74,62.28-15.59,3.01-2.94,4.42-6.05,4.54-9.99-.14-.6-.27-1.21-.42-1.8-7.61-30.7-23.54-53.91-47.78-69.64-24.25-15.72-56.27-23.58-96.06-23.58s-72.91,8.11-105.25,24.32c-32.33,16.21-59.39,38.69-81.15,67.43-21.78,28.74-36.04,62.27-42.79,100.59-6.67,37.83-3.93,70.99,8.25,99.48,12.17,28.5,31.8,50.84,58.92,67.06,27.1,16.21,59.82,24.31,98.14,24.31,32.43,0,61.67-5.65,87.74-16.95,26.06-11.29,48.15-26.53,66.27-45.69,18.12-19.16,31.25-40.77,39.44-64.85h-67.06c-9.86,19.65-24.96,35.62-45.29,47.9Z"/>
      <path class="cls-1" d="M1568.83,209.6c11.13.42,28.51,3.03,57.84,11.23,7.88,2.21,15.2,4.6,21.95,7.19-26.26-48.13-76.96-78.81-132.78-78.81h0l-7.61-.06h-16.97l2.58-17.7c3.12-17.69,8.32-31.2,15.62-40.53,7.29-9.33,16.43-15.84,27.39-19.53,10.97-3.69,22.01-6.65,34.71-6.17h39.79L1622.78.38h-47.16c-26.05,0-48.88,5.69-70.04,14.27-21.17,8.61-38.68,22.24-52.53,40.9-13.86,18.68-23.38,42.74-28.58,72.22l-4.16,21.38h-71.48l-10.65,60.43h71.48l-54.04,307.28h70.79l54.2-307.28h88.21Z"/>
      <path class="cls-1" d="M1845.57,149.05l-113.64,290.04-62.41-158.93c-8.66-9.57-26.62-18.6-51.26-25.54-12.82-3.61-25.3-6.07-34.87-7.66l113.15,273.01-84.19,182.71h74.43l233.21-553.63h-74.43Z"/>
      <path class="cls-1" d="M647.96,295.07c-.66,0-1.23,0-1.73-.01h-187.76c-4.82,9.85-14.98,33-15.71,54.53h212.35c24.34,0,58.64-18.41,61.35-42.6,1.04-9.3,1.6-18.19,1.69-26.71-24.79,13.55-58.77,14.78-70.19,14.78Z"/>
      <path class="cls-1" d="M323.06,90.01c11.33-28.26,10.73-41.61,8.8-46.31-33.52-25.74-80.85-34.82-113.23-37.77l-16.97,62.7c26.2,2.34,88.13,8.57,116.53,32.78,1.67-3.69,3.32-7.52,4.87-11.4Z"/>
      <path class="cls-1" d="M365.34,87.46c-1.51-3.95-3.26-7.7-5.2-11.29-2.03,7.85-4.91,16.39-8.63,25.63-7.89,19.62-17.59,37.44-22.41,45.89-22.15,49.68-137.41,73.24-237.02,85.3L152.1,0l-84.39,30.01L24.76,196.79l-.06-.09L0,292.78l.02.03h0s16.77,24.84,16.77,24.84l135,199.97h89.56l-143.79-212.99c26.81-4.46,59.48-10.29,93.44-17.26,105.64-21.69,152.88-51.55,172.15-109.64,7.78-23.45,13.24-61.3,2.19-90.28Z"/>
    </g>
  </g>
</svg>